<?xml version="1.0" encoding="UTF-8" standalone="no"?>
<svg
   xmlns:dc="http://purl.org/dc/elements/1.1/"
   xmlns:cc="http://creativecommons.org/ns#"
   xmlns:rdf="http://www.w3.org/1999/02/22-rdf-syntax-ns#"
   xmlns:svg="http://www.w3.org/2000/svg"
   xmlns="http://www.w3.org/2000/svg"
   xmlns:xlink="http://www.w3.org/1999/xlink"
   xmlns:sodipodi="http://sodipodi.sourceforge.net/DTD/sodipodi-0.dtd"
   xmlns:inkscape="http://www.inkscape.org/namespaces/inkscape"
   width="100"
   height="100"
   viewBox="0 0 100 100"
   id="svg2"
   version="1.1"
   inkscape:version="0.91 r13725"
   sodipodi:docname="magnifying.svg">
  <metadata
     id="metadata30">
    <rdf:RDF>
      <cc:Work
         rdf:about="">
        <dc:format>image/svg+xml</dc:format>
        <dc:type
           rdf:resource="http://purl.org/dc/dcmitype/StillImage" />
        <dc:title></dc:title>
      </cc:Work>
    </rdf:RDF>
  </metadata>
  <sodipodi:namedview
     pagecolor="#ffffff"
     bordercolor="#666666"
     borderopacity="1"
     objecttolerance="10"
     gridtolerance="10"
     guidetolerance="10"
     inkscape:pageopacity="0"
     inkscape:pageshadow="2"
     inkscape:window-width="1920"
     inkscape:window-height="1018"
     id="namedview28"
     showgrid="false"
     inkscape:zoom="2.36"
     inkscape:cx="-22.245763"
     inkscape:cy="50"
     inkscape:window-x="-8"
     inkscape:window-y="-8"
     inkscape:window-maximized="1"
     inkscape:current-layer="svg2" />
  <defs
     id="defs6">
    <path
       id="a"
       d="M50 0c-27.614 0-50 22.385-50 50 0 27.613 22.386 50 50 50s50-22.387 50-50c0-27.615-22.386-50-50-50z" />
    <radialGradient
       inkscape:collect="always"
       xlink:href="#linearGradient5479"
       id="radialGradient3398"
       gradientUnits="userSpaceOnUse"
       gradientTransform="matrix(0.20236965,2.2984133e-7,-1.7538032e-8,0.0154418,269.06927,2.1685413)"
       cx="353.37662"
       cy="147.47948"
       fx="353.37662"
       fy="147.47948"
       r="44.017399" />
    <linearGradient
       id="linearGradient5479">
      <stop
         style="stop-color:#ffffff;stop-opacity:0.8041237"
         offset="0"
         id="stop5481" />
      <stop
         style="stop-color:#ffffff;stop-opacity:0"
         offset="1"
         id="stop5483" />
    </linearGradient>
    <radialGradient
       inkscape:collect="always"
       xlink:href="#linearGradient5479"
       id="radialGradient3408"
       gradientUnits="userSpaceOnUse"
       gradientTransform="matrix(0.20236965,2.2984133e-7,-1.7538032e-8,0.0154418,269.06927,2.1685413)"
       cx="353.37662"
       cy="147.47948"
       fx="353.37662"
       fy="147.47948"
       r="44.017399" />
    <radialGradient
       inkscape:collect="always"
       xlink:href="#linearGradient5479"
       id="radialGradient3416"
       gradientUnits="userSpaceOnUse"
       gradientTransform="matrix(0.20236965,2.2984133e-7,-1.7538032e-8,0.0154418,269.06927,2.1685413)"
       cx="353.37662"
       cy="147.47948"
       fx="353.37662"
       fy="147.47948"
       r="44.017399" />
    <radialGradient
       inkscape:collect="always"
       xlink:href="#linearGradient5479"
       id="radialGradient3424"
       gradientUnits="userSpaceOnUse"
       gradientTransform="matrix(0.20236965,2.2984133e-7,-1.7538032e-8,0.0154418,269.06927,2.1685413)"
       cx="353.37662"
       cy="147.47948"
       fx="353.37662"
       fy="147.47948"
       r="44.017399" />
    <radialGradient
       inkscape:collect="always"
       xlink:href="#linearGradient5479"
       id="radialGradient3432"
       gradientUnits="userSpaceOnUse"
       gradientTransform="matrix(0.20236965,2.2984133e-7,-1.7538032e-8,0.0154418,269.06927,2.1685413)"
       cx="353.37662"
       cy="147.47948"
       fx="353.37662"
       fy="147.47948"
       r="44.017399" />
    <radialGradient
       inkscape:collect="always"
       xlink:href="#linearGradient5479"
       id="radialGradient3440"
       gradientUnits="userSpaceOnUse"
       gradientTransform="matrix(0.20236965,2.2984133e-7,-1.7538032e-8,0.0154418,269.06927,2.1685413)"
       cx="353.37662"
       cy="147.47948"
       fx="353.37662"
       fy="147.47948"
       r="44.017399" />
    <radialGradient
       inkscape:collect="always"
       xlink:href="#linearGradient5479"
       id="radialGradient3448"
       gradientUnits="userSpaceOnUse"
       gradientTransform="matrix(0.20236965,2.2984133e-7,-1.7538032e-8,0.0154418,269.06927,2.1685413)"
       cx="353.37662"
       cy="147.47948"
       fx="353.37662"
       fy="147.47948"
       r="44.017399" />
    <radialGradient
       inkscape:collect="always"
       xlink:href="#linearGradient5479"
       id="radialGradient3456"
       gradientUnits="userSpaceOnUse"
       gradientTransform="matrix(0.20236965,2.2984133e-7,-1.7538032e-8,0.0154418,269.06927,2.1685413)"
       cx="353.37662"
       cy="147.47948"
       fx="353.37662"
       fy="147.47948"
       r="44.017399" />
    <radialGradient
       inkscape:collect="always"
       xlink:href="#linearGradient5479"
       id="radialGradient3464"
       gradientUnits="userSpaceOnUse"
       gradientTransform="matrix(0.20236965,2.2984133e-7,-1.7538032e-8,0.0154418,269.06927,2.1685413)"
       cx="353.37662"
       cy="147.47948"
       fx="353.37662"
       fy="147.47948"
       r="44.017399" />
    <radialGradient
       inkscape:collect="always"
       xlink:href="#linearGradient5479"
       id="radialGradient3402"
       gradientUnits="userSpaceOnUse"
       gradientTransform="matrix(0.09020184,0,0,0.09020184,212.19488,224.56322)"
       cx="228.39549"
       cy="273.52124"
       fx="228.39549"
       fy="273.52124"
       r="12.374369" />
    <radialGradient
       inkscape:collect="always"
       xlink:href="#linearGradient5479"
       id="radialGradient3479"
       gradientUnits="userSpaceOnUse"
       gradientTransform="matrix(0.09020184,0,0,0.09020184,212.19488,224.56322)"
       cx="228.39549"
       cy="273.52124"
       fx="228.39549"
       fy="273.52124"
       r="12.374369" />
    <radialGradient
       inkscape:collect="always"
       xlink:href="#linearGradient5479"
       id="radialGradient3487"
       gradientUnits="userSpaceOnUse"
       gradientTransform="matrix(0.09020184,0,0,0.09020184,212.19488,224.56322)"
       cx="228.39549"
       cy="273.52124"
       fx="228.39549"
       fy="273.52124"
       r="12.374369" />
    <radialGradient
       inkscape:collect="always"
       xlink:href="#linearGradient5479"
       id="radialGradient3495"
       gradientUnits="userSpaceOnUse"
       gradientTransform="matrix(0.09020184,0,0,0.09020184,212.19488,224.56322)"
       cx="228.39549"
       cy="273.52124"
       fx="228.39549"
       fy="273.52124"
       r="12.374369" />
    <radialGradient
       inkscape:collect="always"
       xlink:href="#linearGradient5479"
       id="radialGradient3503"
       gradientUnits="userSpaceOnUse"
       gradientTransform="matrix(0.09020184,0,0,0.09020184,212.19488,224.56322)"
       cx="228.39549"
       cy="273.52124"
       fx="228.39549"
       fy="273.52124"
       r="12.374369" />
    <radialGradient
       inkscape:collect="always"
       xlink:href="#linearGradient5479"
       id="radialGradient3511"
       gradientUnits="userSpaceOnUse"
       gradientTransform="matrix(0.09020184,0,0,0.09020184,212.19488,224.56322)"
       cx="228.39549"
       cy="273.52124"
       fx="228.39549"
       fy="273.52124"
       r="12.374369" />
    <radialGradient
       inkscape:collect="always"
       xlink:href="#linearGradient5479"
       id="radialGradient3519"
       gradientUnits="userSpaceOnUse"
       gradientTransform="matrix(0.09020184,0,0,0.09020184,212.19488,224.56322)"
       cx="228.39549"
       cy="273.52124"
       fx="228.39549"
       fy="273.52124"
       r="12.374369" />
    <radialGradient
       inkscape:collect="always"
       xlink:href="#linearGradient5479"
       id="radialGradient3527"
       gradientUnits="userSpaceOnUse"
       gradientTransform="matrix(0.09020184,0,0,0.09020184,212.19488,224.56322)"
       cx="228.39549"
       cy="273.52124"
       fx="228.39549"
       fy="273.52124"
       r="12.374369" />
    <radialGradient
       inkscape:collect="always"
       xlink:href="#linearGradient5479"
       id="radialGradient3535"
       gradientUnits="userSpaceOnUse"
       gradientTransform="matrix(0.09020184,0,0,0.09020184,212.19488,224.56322)"
       cx="228.39549"
       cy="273.52124"
       fx="228.39549"
       fy="273.52124"
       r="12.374369" />
    <radialGradient
       inkscape:collect="always"
       xlink:href="#linearGradient5479"
       id="radialGradient3543"
       gradientUnits="userSpaceOnUse"
       gradientTransform="matrix(0.09020184,0,0,0.09020184,212.19488,224.56322)"
       cx="228.39549"
       cy="273.52124"
       fx="228.39549"
       fy="273.52124"
       r="12.374369" />
    <radialGradient
       inkscape:collect="always"
       xlink:href="#linearGradient5479"
       id="radialGradient3551"
       gradientUnits="userSpaceOnUse"
       gradientTransform="matrix(0.09020184,0,0,0.09020184,212.19488,224.56322)"
       cx="228.39549"
       cy="273.52124"
       fx="228.39549"
       fy="273.52124"
       r="12.374369" />
    <radialGradient
       inkscape:collect="always"
       xlink:href="#linearGradient5479"
       id="radialGradient3559"
       gradientUnits="userSpaceOnUse"
       gradientTransform="matrix(0.09020184,0,0,0.09020184,212.19488,224.56322)"
       cx="228.39549"
       cy="273.52124"
       fx="228.39549"
       fy="273.52124"
       r="12.374369" />
    <radialGradient
       inkscape:collect="always"
       xlink:href="#linearGradient5479"
       id="radialGradient3567"
       gradientUnits="userSpaceOnUse"
       gradientTransform="matrix(0.09020184,0,0,0.09020184,212.19488,224.56322)"
       cx="228.39549"
       cy="273.52124"
       fx="228.39549"
       fy="273.52124"
       r="12.374369" />
    <radialGradient
       inkscape:collect="always"
       xlink:href="#linearGradient5479"
       id="radialGradient3575"
       gradientUnits="userSpaceOnUse"
       gradientTransform="matrix(0.09020184,0,0,0.09020184,212.19488,224.56322)"
       cx="228.39549"
       cy="273.52124"
       fx="228.39549"
       fy="273.52124"
       r="12.374369" />
    <radialGradient
       r="12.374369"
       fy="273.52124"
       fx="228.39549"
       cy="273.52124"
       cx="228.39549"
       gradientTransform="matrix(0.09020184,0,0,0.09020184,212.19488,224.56322)"
       gradientUnits="userSpaceOnUse"
       id="radialGradient3640"
       xlink:href="#linearGradient5479"
       inkscape:collect="always" />
    <radialGradient
       r="44.017399"
       fy="147.47948"
       fx="353.37662"
       cy="147.47948"
       cx="353.37662"
       gradientTransform="matrix(0.20236965,2.2984133e-7,-1.7538032e-8,0.0154418,269.06927,2.1685413)"
       gradientUnits="userSpaceOnUse"
       id="radialGradient3644"
       xlink:href="#linearGradient5479"
       inkscape:collect="always" />
    <linearGradient
       id="linearGradient3562"
       x1="13409.575"
       x2="15225.349"
       xlink:href="#linearGradient3655"
       y1="15312.072"
       y2="15259.919"
       gradientTransform="matrix(0.00508369,0,0,0.00502664,2.3491736,3.2778288)"
       gradientUnits="userSpaceOnUse" />
    <linearGradient
       id="linearGradient3655">
      <stop
         id="stop3656"
         offset="0"
         style="stop-color:#ffffff;stop-opacity:0;" />
      <stop
         id="stop3657"
         offset="1"
         style="stop-color:#7d8787;stop-opacity:0.1451;" />
    </linearGradient>
    <linearGradient
       id="linearGradient3561"
       x1="11701.849"
       x2="13460.929"
       xlink:href="#linearGradient3558"
       y1="13028.776"
       y2="11382.51"
       gradientTransform="matrix(0.00499193,0,0,0.00511904,2.3491736,3.2778288)"
       gradientUnits="userSpaceOnUse" />
    <linearGradient
       id="linearGradient3558">
      <stop
         id="stop3559"
         offset="0"
         style="stop-color:#57575a;stop-opacity:1;" />
      <stop
         id="stop3560"
         offset="1"
         style="stop-color:#ffffff;stop-opacity:1;" />
    </linearGradient>
    <linearGradient
       id="linearGradient3653"
       x1="-2602.7705"
       x2="9707.4707"
       xlink:href="#linearGradient3650"
       y1="6138.4531"
       y2="6138.2944"
       gradientUnits="userSpaceOnUse" />
    <linearGradient
       id="linearGradient3650">
      <stop
         id="stop3651"
         offset="0"
         style="stop-color:#2e97af;stop-opacity:1;" />
      <stop
         id="stop3652"
         offset="1"
         style="stop-color:#ffffff;stop-opacity:1;" />
    </linearGradient>
    <linearGradient
       inkscape:collect="always"
       xlink:href="#linearGradient3650"
       id="linearGradient3822"
       gradientUnits="userSpaceOnUse"
       x1="-2602.7705"
       y1="6138.4531"
       x2="9707.4707"
       y2="6138.2944" />
  </defs>
  <clipPath
     id="b">
    <use
       xlink:href="#a"
       overflow="visible"
       id="use10" />
  </clipPath>
  <g
     id="g3556"
     style="fill:url(#linearGradient3653);stroke:none"
     transform="matrix(0.00505508,0,0,0.00505508,2.6486366,3.2778268)">
    <path
       d="m 5885,11257 -729,-50 -700,-142 -663,-231 -620,-311 -571,-386 -516,-454 -454,-516 -386,-571 -311,-620 -231,-663 -142,-700 -49,-728 49,-729 142,-700 231,-663 311,-620 386,-571 454,-516 516,-454 571,-386 620,-311 663,-231 700,-142 729,-49 728,49 700,142 663,231 620,311 571,386 516,454 454,516 386,571 311,620 231,663 142,700 50,729 -50,728 -142,700 -231,663 -311,620 -386,571 -454,516 -516,454 -571,386 -620,311 -663,231 -700,142 -728,50 z m -360,-361 -730,-50 -699,-142 -663,-231 -621,-311 -571,-386 -516,-454 -454,-516 -386,-571 -311,-620 -231,-663 -142,-699 -49,-728 49,-729 142,-699 231,-663 311,-621 386,-571 454,-516 516,-455 571,-386 621,-311 663,-230 699,-143 730,-49 729,49 699,142 663,231 620,311 571,386 516,454 454,516 386,571 311,621 230,663 143,699 49,730 -50,729 -142,699 -231,663 -311,620 -386,571 -454,516 -516,454 -571,386 -620,311 -663,230 -699,143 -728,49 z"
       id="path3557"
       style="fill:url(#linearGradient3822)"
       inkscape:connector-curvature="0" />
  </g>
  <path
     d="m 59.306448,33.040238 c 0,15.143609 -12.181515,27.419913 -27.208206,27.419913 -15.026683,0 -27.2082224,-12.276304 -27.2082224,-27.419913 0,-15.143615 12.1815394,-27.4199342 27.2082224,-27.4199342 15.026691,0 27.208206,12.2763192 27.208206,27.4199342 z m -1.482153,-1.588013 c 0,15.085146 -12.228922,27.314072 -27.314081,27.314072 -15.085152,0 -27.3140884,-12.228926 -27.3140884,-27.314072 0,-15.085158 12.2289364,-27.3140912 27.3140884,-27.3140912 15.085159,0 27.314081,12.2289332 27.314081,27.3140912 z"
     id="path3643"
     style="font-size:12px;fill:#bebfbf;fill-opacity:1;fill-rule:evenodd;stroke-width:1"
     inkscape:connector-curvature="0" />
  <g
     id="g746"
     style="fill:#000000;fill-opacity:1;stroke:none"
     transform="matrix(0.00505508,0,0,0.00505508,2.3492086,3.4895728)">
    <polygon
       id="polygon747"
       points="5879,11332 5140,11281 5156,11207 5171,11132 5890,11181 5885,11257 5885,11257 "
       style="fill:#000000;fill-opacity:1" />
    <polygon
       id="polygon748"
       points="5140,11281 4430,11136 4456,11065 4481,10993 5171,11132 5156,11207 5156,11207 "
       style="fill:#000000;fill-opacity:1" />
    <polygon
       id="polygon749"
       points="4430,11136 3758,10901 3793,10834 3827,10766 4481,10993 4456,11065 4456,11065 "
       style="fill:#000000;fill-opacity:1" />
    <polygon
       id="polygon750"
       points="3758,10901 3130,10585 3173,10523 3215,10460 3827,10766 3793,10834 3793,10834 "
       style="fill:#000000;fill-opacity:1" />
    <polygon
       id="polygon751"
       points="3130,10585 2551,10194 2602,10137 2652,10079 3215,10460 3173,10523 3173,10523 "
       style="fill:#000000;fill-opacity:1" />
    <polygon
       id="polygon752"
       points="2551,10194 2028,9733 2086,9683 2143,9632 2652,10079 2602,10137 2602,10137 "
       style="fill:#000000;fill-opacity:1" />
    <polygon
       id="polygon753"
       points="2028,9733 1569,9209 1632,9167 1694,9124 2143,9632 2086,9683 2086,9683 "
       style="fill:#000000;fill-opacity:1" />
    <polygon
       id="polygon754"
       points="1569,9209 1178,8630 1246,8596 1313,8561 1694,9124 1632,9167 1632,9167 "
       style="fill:#000000;fill-opacity:1" />
    <polygon
       id="polygon755"
       points="1178,8630 863,8001 935,7976 1006,7950 1313,8561 1246,8596 1246,8596 "
       style="fill:#000000;fill-opacity:1" />
    <polygon
       id="polygon756"
       points="863,8001 629,7328 704,7313 778,7297 1006,7950 935,7976 935,7976 "
       style="fill:#000000;fill-opacity:1" />
    <polygon
       id="polygon757"
       points="629,7328 486,6618 562,6613 637,6607 778,7297 704,7313 704,7313 "
       style="fill:#000000;fill-opacity:1" />
    <polygon
       id="polygon758"
       points="486,6618 437,5879 513,5885 588,5890 637,6607 562,6613 562,6613 "
       style="fill:#000000;fill-opacity:1" />
    <polygon
       id="polygon759"
       points="437,5879 487,5140 562,5156 636,5171 588,5890 513,5885 513,5885 "
       style="fill:#000000;fill-opacity:1" />
    <polygon
       id="polygon760"
       points="487,5140 632,4430 704,4456 775,4481 636,5171 562,5156 562,5156 "
       style="fill:#000000;fill-opacity:1" />
    <polygon
       id="polygon761"
       points="632,4430 867,3758 935,3793 1002,3827 775,4481 704,4456 704,4456 "
       style="fill:#000000;fill-opacity:1" />
    <polygon
       id="polygon762"
       points="867,3758 1183,3130 1246,3173 1308,3215 1002,3827 935,3793 935,3793 "
       style="fill:#000000;fill-opacity:1" />
    <polygon
       id="polygon763"
       points="1183,3130 1574,2551 1632,2602 1689,2652 1308,3215 1246,3173 1246,3173 "
       style="fill:#000000;fill-opacity:1" />
    <polygon
       id="polygon764"
       points="1574,2551 2035,2028 2086,2086 2136,2143 1689,2652 1632,2602 1632,2602 "
       style="fill:#000000;fill-opacity:1" />
    <polygon
       id="polygon765"
       points="2035,2028 2559,1569 2602,1632 2644,1694 2136,2143 2086,2086 2086,2086 "
       style="fill:#000000;fill-opacity:1" />
    <polygon
       id="polygon766"
       points="2559,1569 3138,1178 3173,1246 3207,1313 2644,1694 2602,1632 2602,1632 "
       style="fill:#000000;fill-opacity:1" />
    <polygon
       id="polygon767"
       points="3138,1178 3767,863 3793,935 3818,1006 3207,1313 3173,1246 3173,1246 "
       style="fill:#000000;fill-opacity:1" />
    <polygon
       id="polygon768"
       points="3767,863 4440,629 4456,704 4471,778 3818,1006 3793,935 3793,935 "
       style="fill:#000000;fill-opacity:1" />
    <polygon
       id="polygon769"
       points="4440,629 5150,486 5156,562 5161,637 4471,778 4456,704 4456,704 "
       style="fill:#000000;fill-opacity:1" />
    <polygon
       id="polygon770"
       points="5150,486 5890,437 5885,513 5879,588 5161,637 5156,562 5156,562 "
       style="fill:#000000;fill-opacity:1" />
    <polygon
       id="polygon771"
       points="5890,437 6628,487 6613,562 6597,636 5879,588 5885,513 5885,513 "
       style="fill:#000000;fill-opacity:1" />
    <polygon
       id="polygon772"
       points="6628,487 7338,632 7313,704 7287,775 6597,636 6613,562 6613,562 "
       style="fill:#000000;fill-opacity:1" />
    <polygon
       id="polygon773"
       points="7338,632 8010,867 7976,935 7941,1002 7287,775 7313,704 7313,704 "
       style="fill:#000000;fill-opacity:1" />
    <polygon
       id="polygon774"
       points="8010,867 8638,1183 8596,1246 8553,1308 7941,1002 7976,935 7976,935 "
       style="fill:#000000;fill-opacity:1" />
    <polygon
       id="polygon775"
       points="8638,1183 9217,1574 9167,1632 9116,1689 8553,1308 8596,1246 8596,1246 "
       style="fill:#000000;fill-opacity:1" />
    <polygon
       id="polygon776"
       points="9217,1574 9740,2035 9683,2086 9625,2136 9116,1689 9167,1632 9167,1632 "
       style="fill:#000000;fill-opacity:1" />
    <polygon
       id="polygon777"
       points="9740,2035 10199,2559 10137,2602 10074,2644 9625,2136 9683,2086 9683,2086 "
       style="fill:#000000;fill-opacity:1" />
    <polygon
       id="polygon778"
       points="10199,2559 10590,3138 10523,3173 10455,3207 10074,2644 10137,2602 10137,2602 "
       style="fill:#000000;fill-opacity:1" />
    <polygon
       id="polygon779"
       points="10590,3138 10905,3767 10834,3793 10762,3818 10455,3207 10523,3173 10523,3173 "
       style="fill:#000000;fill-opacity:1" />
    <polygon
       id="polygon780"
       points="10905,3767 11139,4440 11065,4456 10990,4471 10762,3818 10834,3793 10834,3793 "
       style="fill:#000000;fill-opacity:1" />
    <polygon
       id="polygon781"
       points="11139,4440 11282,5150 11207,5156 11131,5161 10990,4471 11065,4456 11065,4456 "
       style="fill:#000000;fill-opacity:1" />
    <polygon
       id="polygon782"
       points="11282,5150 11332,5890 11257,5885 11181,5879 11131,5161 11207,5156 11207,5156 "
       style="fill:#000000;fill-opacity:1" />
    <polygon
       id="polygon783"
       points="11332,5890 11281,6628 11207,6613 11132,6597 11181,5879 11257,5885 11257,5885 "
       style="fill:#000000;fill-opacity:1" />
    <polygon
       id="polygon784"
       points="11281,6628 11136,7338 11065,7313 10993,7287 11132,6597 11207,6613 11207,6613 "
       style="fill:#000000;fill-opacity:1" />
    <polygon
       id="polygon785"
       points="11136,7338 10901,8010 10834,7976 10766,7941 10993,7287 11065,7313 11065,7313 "
       style="fill:#000000;fill-opacity:1" />
    <polygon
       id="polygon786"
       points="10901,8010 10585,8638 10523,8596 10460,8553 10766,7941 10834,7976 10834,7976 "
       style="fill:#000000;fill-opacity:1" />
    <polygon
       id="polygon787"
       points="10585,8638 10194,9217 10137,9167 10079,9116 10460,8553 10523,8596 10523,8596 "
       style="fill:#000000;fill-opacity:1" />
    <polygon
       id="polygon788"
       points="10194,9217 9733,9740 9683,9683 9632,9625 10079,9116 10137,9167 10137,9167 "
       style="fill:#000000;fill-opacity:1" />
    <polygon
       id="polygon789"
       points="9733,9740 9209,10199 9167,10137 9124,10074 9632,9625 9683,9683 9683,9683 "
       style="fill:#000000;fill-opacity:1" />
    <polygon
       id="polygon790"
       points="9209,10199 8630,10590 8596,10523 8561,10455 9124,10074 9167,10137 9167,10137 "
       style="fill:#000000;fill-opacity:1" />
    <polygon
       id="polygon791"
       points="8630,10590 8001,10905 7976,10834 7950,10762 8561,10455 8596,10523 8596,10523 "
       style="fill:#000000;fill-opacity:1" />
    <polygon
       id="polygon792"
       points="8001,10905 7328,11139 7313,11065 7297,10990 7950,10762 7976,10834 7976,10834 "
       style="fill:#000000;fill-opacity:1" />
    <polygon
       id="polygon793"
       points="7328,11139 6618,11282 6613,11207 6607,11131 7297,10990 7313,11065 7313,11065 "
       style="fill:#000000;fill-opacity:1" />
    <polygon
       id="polygon794"
       points="6618,11282 5879,11332 5885,11257 5890,11181 6607,11131 6613,11207 6613,11207 "
       style="fill:#000000;fill-opacity:1" />
    <polygon
       id="polygon795"
       points="5519,10971 4779,10920 4795,10846 4810,10771 5530,10820 5525,10896 5525,10896 "
       style="fill:#000000;fill-opacity:1" />
    <polygon
       id="polygon796"
       points="4779,10920 4070,10775 4096,10704 4121,10632 4810,10771 4795,10846 4795,10846 "
       style="fill:#000000;fill-opacity:1" />
    <polygon
       id="polygon797"
       points="4070,10775 3398,10540 3433,10473 3467,10405 4121,10632 4096,10704 4096,10704 "
       style="fill:#000000;fill-opacity:1" />
    <polygon
       id="polygon798"
       points="3398,10540 2769,10224 2812,10162 2854,10099 3467,10405 3433,10473 3433,10473 "
       style="fill:#000000;fill-opacity:1" />
    <polygon
       id="polygon799"
       points="2769,10224 2190,9833 2241,9776 2291,9718 2854,10099 2812,10162 2812,10162 "
       style="fill:#000000;fill-opacity:1" />
    <polygon
       id="polygon800"
       points="2190,9833 1667,9372 1725,9322 1782,9271 2291,9718 2241,9776 2241,9776 "
       style="fill:#000000;fill-opacity:1" />
    <polygon
       id="polygon801"
       points="1667,9372 1208,8848 1271,8806 1333,8763 1782,9271 1725,9322 1725,9322 "
       style="fill:#000000;fill-opacity:1" />
    <polygon
       id="polygon802"
       points="1208,8848 817,8269 885,8235 952,8200 1333,8763 1271,8806 1271,8806 "
       style="fill:#000000;fill-opacity:1" />
    <polygon
       id="polygon803"
       points="817,8269 502,7640 574,7615 645,7589 952,8200 885,8235 885,8235 "
       style="fill:#000000;fill-opacity:1" />
    <polygon
       id="polygon804"
       points="502,7640 268,6967 343,6952 417,6936 645,7589 574,7615 574,7615 "
       style="fill:#000000;fill-opacity:1" />
    <polygon
       id="polygon805"
       points="268,6967 125,6258 201,6253 276,6247 417,6936 343,6952 343,6952 "
       style="fill:#000000;fill-opacity:1" />
    <polygon
       id="polygon806"
       points="125,6258 76,5519 152,5525 227,5530 276,6247 201,6253 201,6253 "
       style="fill:#000000;fill-opacity:1" />
    <polygon
       id="polygon807"
       points="76,5519 126,4780 201,4796 275,4811 227,5530 152,5525 152,5525 "
       style="fill:#000000;fill-opacity:1" />
    <polygon
       id="polygon808"
       points="126,4780 271,4071 343,4097 414,4122 275,4811 201,4796 201,4796 "
       style="fill:#000000;fill-opacity:1" />
    <polygon
       id="polygon809"
       points="271,4071 506,3399 574,3434 641,3468 414,4122 343,4097 343,4097 "
       style="fill:#000000;fill-opacity:1" />
    <polygon
       id="polygon810"
       points="506,3399 822,2770 885,2813 947,2855 641,3468 574,3434 574,3434 "
       style="fill:#000000;fill-opacity:1" />
    <polygon
       id="polygon811"
       points="822,2770 1213,2191 1271,2242 1328,2292 947,2855 885,2813 885,2813 "
       style="fill:#000000;fill-opacity:1" />
    <polygon
       id="polygon812"
       points="1213,2191 1674,1668 1725,1726 1775,1783 1328,2292 1271,2242 1271,2242 "
       style="fill:#000000;fill-opacity:1" />
    <polygon
       id="polygon813"
       points="1674,1668 2198,1208 2241,1271 2283,1333 1775,1783 1725,1726 1725,1726 "
       style="fill:#000000;fill-opacity:1" />
    <polygon
       id="polygon814"
       points="2198,1208 2777,817 2812,885 2846,952 2283,1333 2241,1271 2241,1271 "
       style="fill:#000000;fill-opacity:1" />
    <polygon
       id="polygon815"
       points="2777,817 3408,502 3433,574 3457,645 2846,952 2812,885 2812,885 "
       style="fill:#000000;fill-opacity:1" />
    <polygon
       id="polygon816"
       points="3408,502 4080,269 4096,344 4111,418 3457,645 3433,574 3433,574 "
       style="fill:#000000;fill-opacity:1" />
    <polygon
       id="polygon817"
       points="4080,269 4789,125 4795,201 4800,276 4111,418 4096,344 4096,344 "
       style="fill:#000000;fill-opacity:1" />
    <polygon
       id="polygon818"
       points="4789,125 5530,76 5525,152 5519,227 4800,276 4795,201 4795,201 "
       style="fill:#000000;fill-opacity:1" />
    <polygon
       id="polygon819"
       points="5530,76 6269,126 6254,201 6238,275 5519,227 5525,152 5525,152 "
       style="fill:#000000;fill-opacity:1" />
    <polygon
       id="polygon820"
       points="6269,126 6978,271 6953,343 6927,414 6238,275 6254,201 6254,201 "
       style="fill:#000000;fill-opacity:1" />
    <polygon
       id="polygon821"
       points="6978,271 7650,506 7616,574 7581,641 6927,414 6953,343 6953,343 "
       style="fill:#000000;fill-opacity:1" />
    <polygon
       id="polygon822"
       points="7650,506 8278,822 8236,885 8193,947 7581,641 7616,574 7616,574 "
       style="fill:#000000;fill-opacity:1" />
    <polygon
       id="polygon823"
       points="8278,822 8857,1213 8807,1271 8756,1328 8193,947 8236,885 8236,885 "
       style="fill:#000000;fill-opacity:1" />
    <polygon
       id="polygon824"
       points="8857,1213 9380,1674 9323,1725 9265,1775 8756,1328 8807,1271 8807,1271 "
       style="fill:#000000;fill-opacity:1" />
    <polygon
       id="polygon825"
       points="9380,1674 9839,2198 9777,2241 9714,2283 9265,1775 9323,1725 9323,1725 "
       style="fill:#000000;fill-opacity:1" />
    <polygon
       id="polygon826"
       points="9839,2198 10230,2777 10163,2812 10095,2846 9714,2283 9777,2241 9777,2241 "
       style="fill:#000000;fill-opacity:1" />
    <polygon
       id="polygon827"
       points="10230,2777 10545,3408 10474,3433 10402,3457 10095,2846 10163,2812 10163,2812 "
       style="fill:#000000;fill-opacity:1" />
    <polygon
       id="polygon828"
       points="10545,3408 10778,4080 10704,4096 10629,4111 10402,3457 10474,3433 10474,3433 "
       style="fill:#000000;fill-opacity:1" />
    <polygon
       id="polygon829"
       points="10778,4080 10922,4789 10847,4795 10771,4800 10629,4111 10704,4096 10704,4096 "
       style="fill:#000000;fill-opacity:1" />
    <polygon
       id="polygon830"
       points="10922,4789 10971,5530 10896,5525 10820,5519 10771,4800 10847,4795 10847,4795 "
       style="fill:#000000;fill-opacity:1" />
    <polygon
       id="polygon831"
       points="10971,5530 10920,6269 10846,6254 10771,6238 10820,5519 10896,5525 10896,5525 "
       style="fill:#000000;fill-opacity:1" />
    <polygon
       id="polygon832"
       points="10920,6269 10775,6978 10704,6953 10632,6927 10771,6238 10846,6254 10846,6254 "
       style="fill:#000000;fill-opacity:1" />
    <polygon
       id="polygon833"
       points="10775,6978 10540,7650 10473,7616 10405,7581 10632,6927 10704,6953 10704,6953 "
       style="fill:#000000;fill-opacity:1" />
    <polygon
       id="polygon834"
       points="10540,7650 10224,8278 10162,8236 10099,8193 10405,7581 10473,7616 10473,7616 "
       style="fill:#000000;fill-opacity:1" />
    <polygon
       id="polygon835"
       points="10224,8278 9833,8857 9776,8807 9718,8756 10099,8193 10162,8236 10162,8236 "
       style="fill:#000000;fill-opacity:1" />
    <polygon
       id="polygon836"
       points="9833,8857 9372,9380 9322,9323 9271,9265 9718,8756 9776,8807 9776,8807 "
       style="fill:#000000;fill-opacity:1" />
    <polygon
       id="polygon837"
       points="9372,9380 8848,9839 8806,9777 8763,9714 9271,9265 9322,9323 9322,9323 "
       style="fill:#000000;fill-opacity:1" />
    <polygon
       id="polygon838"
       points="8848,9839 8269,10230 8235,10163 8200,10095 8763,9714 8806,9777 8806,9777 "
       style="fill:#000000;fill-opacity:1" />
    <polygon
       id="polygon839"
       points="8269,10230 7639,10545 7615,10474 7590,10402 8200,10095 8235,10163 8235,10163 "
       style="fill:#000000;fill-opacity:1" />
    <polygon
       id="polygon840"
       points="7639,10545 6967,10778 6952,10704 6936,10629 7590,10402 7615,10474 7615,10474 "
       style="fill:#000000;fill-opacity:1" />
    <polygon
       id="polygon841"
       points="6967,10778 6258,10922 6253,10847 6247,10771 6936,10629 6952,10704 6952,10704 "
       style="fill:#000000;fill-opacity:1" />
    <polygon
       id="polygon842"
       points="6258,10922 5519,10971 5525,10896 5530,10820 6247,10771 6253,10847 6253,10847 "
       style="fill:#000000;fill-opacity:1" />
  </g>
  <g
     id="g843"
     style="fill:#999999;stroke:none"
     transform="matrix(0.00505508,0,0,0.00505508,2.3491896,3.2778168)">
    <polygon
       id="polygon844"
       points="9978,8834 10146,8812 10277,8864 10350,8983 10358,9153 10306,9358 10197,9581 10036,9808 9841,10006 9641,10153 9449,10240 9281,10261 9151,10211 9151,10211 9077,10091 9069,9921 9121,9716 9230,9492 9392,9266 9586,9067 9786,8921 " />
  </g>
  <g
     id="g845"
     style="fill:#000000;stroke:none"
     transform="matrix(0.00505508,0,0,0.00505508,2.3491896,3.2778168)">
    <polygon
       id="polygon846"
       points="9151,10211 9129,10224 9129,10224 9055,10104 9055,10104 9053,10100 9051,10092 9077,10091 9098,10077 9172,10197 " />
    <polygon
       id="polygon847"
       points="9051,10092 9051,10092 9043,9922 9043,9922 9044,9914 9069,9921 9094,9919 9102,10089 9077,10091 " />
    <polygon
       id="polygon848"
       points="9044,9914 9044,9914 9096,9709 9096,9709 9098,9704 9121,9716 9145,9722 9093,9927 9069,9921 " />
    <polygon
       id="polygon849"
       points="9098,9704 9209,9477 9230,9492 9250,9506 9143,9727 9121,9716 9121,9716 " />
    <polygon
       id="polygon850"
       points="9209,9477 9373,9248 9392,9266 9410,9283 9250,9506 9230,9492 9230,9492 " />
    <polygon
       id="polygon851"
       points="9373,9248 9570,9046 9586,9067 9601,9087 9410,9283 9392,9266 9392,9266 " />
    <polygon
       id="polygon852"
       points="9570,9046 9570,9046 9770,8900 9770,8900 9775,8897 9786,8921 9801,8941 9601,9087 9586,9067 " />
    <polygon
       id="polygon853"
       points="9775,8897 9775,8897 9967,8810 9967,8810 9974,8808 9978,8834 9988,8857 9796,8944 9786,8921 " />
    <polygon
       id="polygon854"
       points="9978,8834 9974,8808 9974,8808 10142,8786 10142,8786 10146,8786 10155,8788 10146,8812 10149,8837 9981,8859 " />
    <polygon
       id="polygon855"
       points="10136,8835 10146,8812 10155,8788 10155,8788 10286,8840 10286,8840 10290,8842 10293,8844 10298,8850 10277,8864 10267,8887 " />
    <polygon
       id="polygon856"
       points="10277,8864 10298,8850 10298,8850 10371,8969 10371,8969 10373,8973 10375,8981 10350,8983 10328,8996 10255,8877 " />
    <polygon
       id="polygon857"
       points="10375,8981 10375,8981 10383,9151 10383,9151 10382,9159 10358,9153 10332,9154 10324,8984 10350,8983 " />
    <polygon
       id="polygon858"
       points="10382,9159 10382,9159 10330,9364 10330,9364 10328,9369 10306,9358 10281,9351 10333,9146 10358,9153 " />
    <polygon
       id="polygon859"
       points="10328,9369 10217,9595 10197,9581 10176,9566 10283,9346 10306,9358 10306,9358 " />
    <polygon
       id="polygon860"
       points="10217,9595 10054,9825 10036,9808 10017,9790 10176,9566 10197,9581 10197,9581 " />
    <polygon
       id="polygon861"
       points="10054,9825 9856,10026 9841,10006 9825,9985 10017,9790 10036,9808 10036,9808 " />
    <polygon
       id="polygon862"
       points="9856,10026 9856,10026 9656,10173 9656,10173 9651,10176 9641,10153 9625,10132 9825,9985 9841,10006 " />
    <polygon
       id="polygon863"
       points="9651,10176 9651,10176 9459,10263 9459,10263 9452,10265 9449,10240 9438,10216 9630,10129 9641,10153 " />
    <polygon
       id="polygon864"
       points="9449,10240 9452,10265 9452,10265 9284,10286 9284,10286 9279,10286 9271,10284 9281,10261 9277,10235 9445,10214 " />
    <polygon
       id="polygon865"
       points="9290,10237 9281,10261 9271,10284 9271,10284 9141,10234 9141,10234 9138,10233 9134,10230 9129,10224 9151,10211 9160,10187 " />
  </g>
  <g
     id="g866"
     style="fill:#999999;stroke:none"
     transform="matrix(0.00505508,0,0,0.00505508,2.3491896,3.2778168)">
    <polygon
       id="polygon867"
       points="10120,8976 10289,8954 10421,9006 10494,9126 10502,9296 10450,9500 10341,9723 10180,9949 9985,10148 9784,10294 9592,10381 9423,10403 9292,10352 9292,10352 9218,10231 9209,10061 9262,9857 9370,9634 9532,9408 9726,9209 9927,9063 " />
  </g>
  <polygon
     id="polygon869"
     points="9292,10352 9270,10365 9270,10365 9196,10244 9196,10244 9194,10240 9192,10232 9218,10231 9239,10217 9313,10338 "
     style="font-size:12px"
     transform="matrix(0.00505508,0,0,0.00505508,2.3491896,3.2778168)" />
  <polygon
     id="polygon870"
     points="9192,10232 9192,10232 9183,10062 9183,10062 9184,10054 9209,10061 9234,10059 9243,10229 9218,10231 "
     style="font-size:12px"
     transform="matrix(0.00505508,0,0,0.00505508,2.3491896,3.2778168)" />
  <polygon
     id="polygon871"
     points="9184,10054 9184,10054 9237,9850 9237,9850 9239,9845 9262,9857 9286,9863 9233,10067 9209,10061 "
     style="font-size:12px"
     transform="matrix(0.00505508,0,0,0.00505508,2.3491896,3.2778168)" />
  <polygon
     id="polygon872"
     points="9239,9845 9349,9619 9370,9634 9390,9648 9284,9868 9262,9857 9262,9857 "
     style="font-size:12px"
     transform="matrix(0.00505508,0,0,0.00505508,2.3491896,3.2778168)" />
  <polygon
     id="polygon873"
     points="9349,9619 9513,9390 9532,9408 9550,9425 9390,9648 9370,9634 9370,9634 "
     style="font-size:12px"
     transform="matrix(0.00505508,0,0,0.00505508,2.3491896,3.2778168)" />
  <polygon
     id="polygon874"
     points="9513,9390 9711,9188 9726,9209 9740,9229 9550,9425 9532,9408 9532,9408 "
     style="font-size:12px"
     transform="matrix(0.00505508,0,0,0.00505508,2.3491896,3.2778168)" />
  <polygon
     id="polygon875"
     points="9711,9188 9711,9188 9912,9042 9912,9042 9916,9039 9927,9063 9941,9083 9740,9229 9726,9209 "
     style="font-size:12px"
     transform="matrix(0.00505508,0,0,0.00505508,2.3491896,3.2778168)" />
  <polygon
     id="polygon876"
     points="9916,9039 9916,9039 10109,8952 10109,8952 10116,8950 10120,8976 10130,8999 9937,9086 9927,9063 "
     style="font-size:12px"
     transform="matrix(0.00505508,0,0,0.00505508,2.3491896,3.2778168)" />
  <polygon
     id="polygon877"
     points="10120,8976 10116,8950 10116,8950 10285,8928 10285,8928 10289,8928 10298,8930 10289,8954 10292,8979 10123,9001 "
     style="font-size:12px"
     transform="matrix(0.00505508,0,0,0.00505508,2.3491896,3.2778168)" />
  <polygon
     id="polygon878"
     points="10279,8977 10289,8954 10298,8930 10298,8930 10430,8982 10430,8982 10434,8984 10437,8986 10442,8992 10421,9006 10411,9029 "
     style="font-size:12px"
     transform="matrix(0.00505508,0,0,0.00505508,2.3491896,3.2778168)" />
  <polygon
     id="polygon879"
     points="10421,9006 10442,8992 10442,8992 10515,9112 10515,9112 10517,9116 10519,9124 10494,9126 10472,9139 10399,9019 "
     style="font-size:12px"
     transform="matrix(0.00505508,0,0,0.00505508,2.3491896,3.2778168)" />
  <polygon
     id="polygon880"
     points="10519,9124 10519,9124 10527,9294 10527,9294 10526,9302 10502,9296 10476,9297 10468,9127 10494,9126 "
     style="font-size:12px"
     transform="matrix(0.00505508,0,0,0.00505508,2.3491896,3.2778168)" />
  <polygon
     id="polygon881"
     points="10526,9302 10526,9302 10474,9506 10474,9506 10472,9511 10450,9500 10425,9493 10477,9289 10502,9296 "
     style="font-size:12px"
     transform="matrix(0.00505508,0,0,0.00505508,2.3491896,3.2778168)" />
  <polygon
     id="polygon882"
     points="10472,9511 10361,9737 10341,9723 10320,9708 10427,9488 10450,9500 10450,9500 "
     style="font-size:12px"
     transform="matrix(0.00505508,0,0,0.00505508,2.3491896,3.2778168)" />
  <polygon
     id="polygon883"
     points="10361,9737 10198,9966 10180,9949 10161,9931 10320,9708 10341,9723 10341,9723 "
     style="font-size:12px"
     transform="matrix(0.00505508,0,0,0.00505508,2.3491896,3.2778168)" />
  <polygon
     id="polygon884"
     points="10198,9966 9999,10168 9985,10148 9970,10127 10161,9931 10180,9949 10180,9949 "
     style="font-size:12px"
     transform="matrix(0.00505508,0,0,0.00505508,2.3491896,3.2778168)" />
  <polygon
     id="polygon885"
     points="9999,10168 9999,10168 9798,10314 9798,10314 9794,10317 9784,10294 9769,10273 9970,10127 9985,10148 "
     style="font-size:12px"
     transform="matrix(0.00505508,0,0,0.00505508,2.3491896,3.2778168)" />
  <polygon
     id="polygon886"
     points="9794,10317 9794,10317 9602,10404 9602,10404 9595,10406 9592,10381 9581,10357 9773,10270 9784,10294 "
     style="font-size:12px"
     transform="matrix(0.00505508,0,0,0.00505508,2.3491896,3.2778168)" />
  <polygon
     id="polygon887"
     points="9592,10381 9595,10406 9595,10406 9426,10428 9426,10428 9422,10428 9413,10426 9423,10403 9419,10377 9588,10355 "
     style="font-size:12px"
     transform="matrix(0.00505508,0,0,0.00505508,2.3491896,3.2778168)" />
  <polygon
     id="polygon888"
     points="9432,10379 9423,10403 9413,10426 9413,10426 9282,10375 9282,10375 9279,10373 9275,10371 9270,10365 9292,10352 9301,10328 "
     style="font-size:12px"
     transform="matrix(0.00505508,0,0,0.00505508,2.3491896,3.2778168)" />
  <path
     d="m 50.519315,55.907798 38.112683,40.812319 2.80551,-1.04547 1.64094,-1.57479 2.4879,-2.42176 0.3441,-1.10498 0.34404,-1.105 -40.547612,-39.647742 -1.402737,0.56903 -1.720383,1.521857 -1.614492,1.733589 -0.449949,2.262947 0,0 z"
     id="path3649"
     sodipodi:nodetypes="cccccccccccc"
     style="font-size:12px;fill:url(#linearGradient3561);fill-rule:evenodd"
     inkscape:connector-curvature="0" />
  <polygon
     id="polygon1091"
     points="17046,18519 16436,17862 16474,17828 16511,17793 17121,18450 17084,18485 17084,18485 "
     style="font-size:12px"
     transform="matrix(0.00505508,0,0,0.00505508,2.3491896,3.2778168)" />
  <polygon
     id="polygon1092"
     points="16436,17862 15823,17203 15861,17169 15898,17134 16511,17793 16474,17828 16474,17828 "
     style="font-size:12px"
     transform="matrix(0.00505508,0,0,0.00505508,2.3491896,3.2778168)" />
  <polygon
     id="polygon1093"
     points="15823,17203 15206,16542 15244,16508 15281,16473 15898,17134 15861,17169 15861,17169 "
     style="font-size:12px"
     transform="matrix(0.00505508,0,0,0.00505508,2.3491896,3.2778168)" />
  <polygon
     id="polygon1094"
     points="15206,16542 14585,15877 14623,15843 14660,15808 15281,16473 15244,16508 15244,16508 "
     style="font-size:12px"
     transform="matrix(0.00505508,0,0,0.00505508,2.3491896,3.2778168)" />
  <polygon
     id="polygon1095"
     points="14585,15877 13960,15209 13998,15175 14035,15140 14660,15808 14623,15843 14623,15843 "
     style="font-size:12px"
     transform="matrix(0.00505508,0,0,0.00505508,2.3491896,3.2778168)" />
  <polygon
     id="polygon1096"
     points="13960,15209 13331,14539 13369,14505 13406,14470 14035,15140 13998,15175 13998,15175 "
     style="font-size:12px"
     transform="matrix(0.00505508,0,0,0.00505508,2.3491896,3.2778168)" />
  <polygon
     id="polygon1097"
     points="13331,14539 12697,13865 12735,13831 12772,13796 13406,14470 13369,14505 13369,14505 "
     style="font-size:12px"
     transform="matrix(0.00505508,0,0,0.00505508,2.3491896,3.2778168)" />
  <polygon
     id="polygon1098"
     points="12697,13865 12059,13188 12097,13154 12134,13119 12772,13796 12735,13831 12735,13831 "
     style="font-size:12px"
     transform="matrix(0.00505508,0,0,0.00505508,2.3491896,3.2778168)" />
  <path
     d="m 63.500497,69.772371 -0.192093,0.171874 -3.245362,-3.437457 0.19209,-0.176927 0.18704,-0.181982 3.245362,3.447566 -0.187037,0.176926 z"
     id="path3570"
     style="font-size:12px"
     inkscape:connector-curvature="0" />
  <polygon
     id="polygon1100"
     points="11417,12508 10770,11824 10808,11789 10845,11753 11492,12437 11455,12473 11455,12473 "
     style="font-size:12px"
     transform="matrix(0.00505508,0,0,0.00505508,2.3491896,3.2778168)" />
  <polygon
     id="polygon1101"
     points="10770,11824 10120,11137 10157,11102 10193,11066 10845,11753 10808,11789 10808,11789 "
     style="font-size:12px"
     transform="matrix(0.00505508,0,0,0.00505508,2.3491896,3.2778168)" />
  <polygon
     id="polygon1102"
     points="9537,10376 10193,11066 10157,11102 10120,11137 10120,11137 9464,10447 9464,10447 9458,10440 9454,10433 9451,10425 9450,10408 9501,10412 "
     style="font-size:12px"
     transform="matrix(0.00505508,0,0,0.00505508,2.3491896,3.2778168)" />
  <polygon
     id="polygon1103"
     points="9501,10412 9450,10408 9450,10408 9466,10184 9466,10184 9467,10175 9474,10159 9517,10188 9567,10191 9551,10415 "
     style="font-size:12px"
     transform="matrix(0.00505508,0,0,0.00505508,2.3491896,3.2778168)" />
  <polygon
     id="polygon1104"
     points="9474,10159 9703,9816 9741,9851 9778,9885 9559,10216 9517,10188 9517,10188 "
     style="font-size:12px"
     transform="matrix(0.00505508,0,0,0.00505508,2.3491896,3.2778168)" />
  <polygon
     id="polygon1105"
     points="9703,9816 10029,9467 10061,9507 10092,9546 9778,9885 9741,9851 9741,9851 "
     style="font-size:12px"
     transform="matrix(0.00505508,0,0,0.00505508,2.3491896,3.2778168)" />
  <polygon
     id="polygon1106"
     points="10061,9507 10029,9467 10029,9467 10337,9219 10337,9219 10343,9214 10357,9209 10369,9259 10400,9298 10092,9546 "
     style="font-size:12px"
     transform="matrix(0.00505508,0,0,0.00505508,2.3491896,3.2778168)" />
  <polygon
     id="polygon1107"
     points="10554,9215 10565,9264 10380,9308 10369,9259 10357,9209 10357,9209 10542,9165 10542,9165 10550,9164 10559,9164 10568,9166 10576,9169 10590,9179 "
     style="font-size:12px"
     transform="matrix(0.00505508,0,0,0.00505508,2.3491896,3.2778168)" />
  <polygon
     id="polygon1108"
     points="10590,9179 11243,9853 11207,9890 11170,9926 10517,9250 10554,9215 10554,9215 "
     style="font-size:12px"
     transform="matrix(0.00505508,0,0,0.00505508,2.3491896,3.2778168)" />
  <path
     d="m 59.001472,53.272586 0.181986,-0.18704 3.381848,3.391961 -0.176927,0.187036 -0.181982,0.181983 -3.391961,-3.391957 0.187036,-0.181983 z"
     id="path3569"
     style="font-size:12px"
     inkscape:connector-curvature="0" />
  <path
     d="m 62.388379,56.664543 0.176927,-0.187036 3.442511,3.37174 -0.176928,0.187036 -0.181983,0.181982 -3.442509,-3.371739 0.181982,-0.181983 z"
     id="path3601"
     style="font-size:12px"
     inkscape:connector-curvature="0" />
  <path
     d="m 65.830889,60.036283 0.176928,-0.187036 3.482953,3.351517 -0.176929,0.187039 -0.181983,0.181983 -3.482952,-3.351521 0.181983,-0.181982 z"
     id="path3600"
     style="font-size:12px"
     inkscape:connector-curvature="0" />
  <path
     d="m 69.313841,63.387803 0.176929,-0.187039 3.503181,3.326245 -0.176949,0.192093 -0.181963,0.187037 -3.503181,-3.336353 0.181983,-0.181983 z"
     id="path3566"
     style="font-size:12px"
     inkscape:connector-curvature="0" />
  <polygon
     id="polygon1113"
     points="13975,12512 14668,13169 14633,13207 14597,13244 13904,12587 13940,12550 13940,12550 "
     style="font-size:12px"
     transform="matrix(0.00505508,0,0,0.00505508,2.3491896,3.2778168)" />
  <polygon
     id="polygon1114"
     points="14668,13169 15356,13822 15321,13859 15285,13895 14597,13244 14633,13207 14633,13207 "
     style="font-size:12px"
     transform="matrix(0.00505508,0,0,0.00505508,2.3491896,3.2778168)" />
  <polygon
     id="polygon1115"
     points="15356,13822 16036,14472 16001,14509 15965,14545 15285,13895 15321,13859 15321,13859 "
     style="font-size:12px"
     transform="matrix(0.00505508,0,0,0.00505508,2.3491896,3.2778168)" />
  <polygon
     id="polygon1116"
     points="16036,14472 16703,15119 16668,15156 16632,15192 15965,14545 16001,14509 16001,14509 "
     style="font-size:12px"
     transform="matrix(0.00505508,0,0,0.00505508,2.3491896,3.2778168)" />
  <polygon
     id="polygon1117"
     points="16703,15119 17356,15764 17320,15800 17283,15835 16632,15192 16668,15156 16668,15156 "
     style="font-size:12px"
     transform="matrix(0.00505508,0,0,0.00505508,2.3491896,3.2778168)" />
  <polygon
     id="polygon1118"
     points="17356,15764 17987,16406 17951,16442 17914,16477 17283,15835 17320,15800 17320,15800 "
     style="font-size:12px"
     transform="matrix(0.00505508,0,0,0.00505508,2.3491896,3.2778168)" />
  <polygon
     id="polygon1119"
     points="18559,17082 18522,17117 17914,16477 17951,16442 17987,16406 17987,16406 18595,17046 18595,17046 18600,17052 18604,17059 18607,17065 18609,17073 18609,17087 "
     style="font-size:12px"
     transform="matrix(0.00505508,0,0,0.00505508,2.3491896,3.2778168)" />
  <polygon
     id="polygon1120"
     points="18559,17082 18609,17087 18609,17087 18586,17283 18586,17283 18584,17292 18577,17307 18536,17278 18485,17272 18508,17076 "
     style="font-size:12px"
     transform="matrix(0.00505508,0,0,0.00505508,2.3491896,3.2778168)" />
  <polygon
     id="polygon1121"
     points="18577,17307 18351,17628 18315,17593 18278,17557 18494,17248 18536,17278 18536,17278 "
     style="font-size:12px"
     transform="matrix(0.00505508,0,0,0.00505508,2.3491896,3.2778168)" />
  <polygon
     id="polygon1122"
     points="18351,17628 18010,17987 17977,17949 17943,17910 18278,17557 18315,17593 18315,17593 "
     style="font-size:12px"
     transform="matrix(0.00505508,0,0,0.00505508,2.3491896,3.2778168)" />
  <polygon
     id="polygon1123"
     points="18010,17987 17632,18311 17605,18268 17577,18224 17943,17910 17977,17949 17977,17949 "
     style="font-size:12px"
     transform="matrix(0.00505508,0,0,0.00505508,2.3491896,3.2778168)" />
  <polygon
     id="polygon1124"
     points="17605,18268 17632,18311 17632,18311 17306,18515 17306,18515 17298,18519 17282,18522 17279,18472 17251,18428 17577,18224 "
     style="font-size:12px"
     transform="matrix(0.00505508,0,0,0.00505508,2.3491896,3.2778168)" />
  <polygon
     id="polygon1125"
     points="17084,18485 17080,18434 17275,18421 17279,18472 17282,18522 17282,18522 17087,18535 17087,18535 17079,18535 17072,18534 17065,18532 17058,18529 17046,18519 "
     style="font-size:12px"
     transform="matrix(0.00505508,0,0,0.00505508,2.3491896,3.2778168)" />
  <g
     id="g1126"
     style="fill:none;stroke:#000000"
     transform="matrix(0.00505508,0,0,0.00505508,2.3491896,3.2778168)">
    <polyline
       id="polyline1127"
       points="18014,18025 17771,18230 17535,18381 17324,18470 17152,18491 17037,18437 16996,18311 17031,18134 17135,17922 17299,17691 17517,17457 17759,17251 17995,17101 18206,17012 18377,16991 18493,17046 18534,17171 18499,17347 18396,17559 18231,17790 18014,18025"
       style="fill:none" />
  </g>
  <path
     d="m 88.469008,96.237387 c -0.0965,-1.33139 1.01567,-3.43119 2.68385,-4.93816 l -33.936637,-28.617568 31.252787,33.555728 0,0 z"
     id="path3658"
     sodipodi:nodetypes="cccc"
     style="font-size:12px;fill:url(#linearGradient3562);fill-rule:evenodd"
     inkscape:connector-curvature="0" />
</svg>
